 <!DOCTYPE svg PUBLIC "-//W3C//DTD SVG 1.1//EN" "http://www.w3.org/Graphics/SVG/1.1/DTD/svg11.dtd">
<svg id="baefb18d-eb3e-4b61-94ef-0239344aa24b" data-name="Layer 1" xmlns="http://www.w3.org/2000/svg" width="865.76" height="682.89" viewBox="0 0 865.76 682.89">
<defs>
<style xmlns="http://www.w3.org/1999/xhtml">*, ::after, ::before { box-sizing: border-box; }
img, svg { vertical-align: middle; }
</style>
<style xmlns="http://www.w3.org/1999/xhtml">*, body, html { -webkit-font-smoothing: antialiased; }
img, svg { max-width: 100%; }
</style>
</defs>
<g id="ac6a4ea1-8605-4a2d-9898-0bf6e4dba0c5" data-name="freepik--background-complete--inject-2">
<rect x="29.59" y="569.09" width="806.58" height="0.4" fill="#ebebeb"/>
<rect x="114.22" y="584.45" width="53.43" height="0.4" fill="#ebebeb"/>
<rect x="305.67" y="580.08" width="68.61" height="0.4" fill="#ebebeb"/>
<rect x="180.37" y="590.11" width="30.96" height="0.4" fill="#ebebeb"/>
<rect x="730.78" y="596.73" width="24.57" height="0.4" fill="#ebebeb"/>
<rect x="661.09" y="596.73" width="55.32" height="0.4" fill="#ebebeb"/>
<rect x="526.44" y="585.11" width="38.44" height="0.4" fill="#ebebeb"/>
<path d="M411.91,497.15H100.43a9.22,9.22,0,0,1-9.2-9.21V50.08a9.22,9.22,0,0,1,9.2-9.13H411.91a9.21,9.21,0,0,1,9.21,9.21h0V487.94A9.21,9.21,0,0,1,411.91,497.15ZM100.43,41.27a8.81,8.81,0,0,0-8.79,8.81V487.94a8.8,8.8,0,0,0,8.79,8.8H411.91a8.82,8.82,0,0,0,8.81-8.8V50.08a8.83,8.83,0,0,0-8.81-8.81Z" fill="#ebebeb"/>
<path d="M760.85,497.15H449.35a9.23,9.23,0,0,1-9.21-9.21V50.08A9.23,9.23,0,0,1,449.35,41h311.5A9.21,9.21,0,0,1,770,50.08V487.94A9.21,9.21,0,0,1,760.85,497.15ZM449.35,41.27a8.83,8.83,0,0,0-8.81,8.81V487.94a8.82,8.82,0,0,0,8.81,8.8h311.5a8.82,8.82,0,0,0,8.81-8.8V50.08a8.83,8.83,0,0,0-8.81-8.81Z" fill="#ebebeb"/>
<rect x="468.98" y="358.21" width="56.62" height="210.89" fill="#e6e6e6"/>
<polygon points="478.4 569.1 468.98 569.1 468.98 550.11 488.29 550.11 478.4 569.1" fill="#f0f0f0"/>
<rect x="699.44" y="358.21" width="56.62" height="210.89" fill="#e6e6e6"/>
<rect x="468.98" y="358.21" width="238.68" height="203.6" fill="#f0f0f0"/>
<rect x="476.31" y="367.22" width="224.05" height="55.83" fill="#e6e6e6"/>
<path d="M577.74,384.55h21.17c9.19,0,18-6.89,24.31-19.05H553.43C559.76,377.69,568.55,384.55,577.74,384.55Z" fill="#f0f0f0"/>
<polygon points="698.25 569.1 707.67 569.1 707.67 550.11 688.36 550.11 698.25 569.1" fill="#f0f0f0"/>
<rect x="476.31" y="432.09" width="224.05" height="55.83" fill="#e6e6e6"/>
<path d="M577.74,449.43h21.17c9.19,0,18-6.89,24.31-19.05H553.43C559.76,442.62,568.55,449.43,577.74,449.43Z" fill="#f0f0f0"/>
<rect x="476.31" y="496.95" width="224.05" height="55.83" fill="#e6e6e6"/>
<path d="M577.74,514.3h21.17c9.19,0,18-6.89,24.31-19.06H553.43C559.76,507.41,568.55,514.3,577.74,514.3Z" fill="#f0f0f0"/>
<polygon points="692.55 266.08 566.53 266.08 559.34 353.38 685.36 353.38 692.55 266.08" fill="#e6e6e6"/>
<polygon points="685.36 353.38 684.84 358.21 558.82 358.21 559.34 353.38 685.36 353.38" fill="#e6e6e6"/>
<polygon points="688.66 266.08 562.66 266.08 555.47 353.38 681.49 353.38 688.66 266.08" fill="#f0f0f0"/>
<path d="M678.94,347.69l5.26-75.63a1.74,1.74,0,0,0-1.47-2l-.15,0H566.77a1.7,1.7,0,0,0-1.61,1.7l-5.23,75.69a1.78,1.78,0,0,0,1.53,2H677.39A1.72,1.72,0,0,0,678.94,347.69Z" fill="#fff"/>
<polygon points="648.64 353.38 648.14 358.21 509.36 358.21 509.88 353.38 648.64 353.38" fill="#f0f0f0"/>
<rect x="114.95" y="439.61" width="43.86" height="129.49" fill="#e6e6e6"/>
<polygon points="123.28 569.1 114.94 569.1 114.94 538.2 132.01 538.2 123.28 569.1" fill="#f0f0f0"/>
<rect x="365.19" y="439.61" width="43.86" height="129.49" fill="#e6e6e6"/>
<rect x="114.96" y="439.61" width="257.51" height="121.05" fill="#f0f0f0"/>
<polygon points="364.13 569.1 372.47 569.1 372.47 538.2 355.4 538.2 364.13 569.1" fill="#f0f0f0"/>
<rect x="287.57" y="452.37" width="76.33" height="94.43" fill="#e6e6e6"/>
<path d="M318.19,457.43h15.1a24.47,24.47,0,0,0,17.32-7.11H300.85A24.41,24.41,0,0,0,318.19,457.43Z" fill="#f0f0f0"/>
<rect x="205.54" y="452.37" width="76.33" height="94.43" fill="#e6e6e6"/>
<path d="M235.38,457.43h15.1a24.41,24.41,0,0,0,17.34-7.11H218A24.49,24.49,0,0,0,235.38,457.43Z" fill="#f0f0f0"/>
<rect x="123.51" y="452.37" width="76.33" height="94.43" fill="#e6e6e6"/>
<path d="M153.35,457.43h15.1a24.46,24.46,0,0,0,17.35-7.11H136.06A24.52,24.52,0,0,0,153.35,457.43Z" fill="#f0f0f0"/>
<rect x="233.01" y="365.53" width="65.59" height="73.88" rx="10.18" fill="#f5f5f5"/>
<rect x="314.73" y="382.58" width="50.46" height="56.83" rx="7.84" fill="#f5f5f5"/>
<path d="M128.38,411.23S130,439.41,192,439.41s63.62-28.18,63.62-28.18Z" fill="#f0f0f0"/>
<rect x="147.82" y="74.26" width="239.04" height="258.78" fill="#e6e6e6"/>
<rect x="140.53" y="74.26" width="242.92" height="258.78" fill="#f0f0f0"/>
<rect x="147.82" y="333.06" width="239.04" height="10.89" fill="#e6e6e6"/>
<rect x="128.4" y="333.06" width="242.92" height="10.89" fill="#f0f0f0"/>
<rect x="150.74" y="84.47" width="222.5" height="238.36" fill="#fafafa"/>
<polygon points="323.07 322.83 294.67 84.47 250.31 84.47 278.73 322.83 323.07 322.83" fill="#fff"/>
<path d="M368.52,314.1a.74.74,0,0,0,.74-.72V91.12a.74.74,0,0,0-.74-.73.73.73,0,0,0-.73.73V313.38A.73.73,0,0,0,368.52,314.1Z" fill="#f0f0f0"/>
<polygon points="269.21 322.83 240.79 84.47 223.49 84.47 251.92 322.83 269.21 322.83" fill="#fff"/>
<rect x="150.76" y="84.47" width="1.29" height="238.36" fill="#e6e6e6"/>
<polygon points="138.13 106.18 377.16 106.18 378.1 88.44 139.06 88.44 138.13 106.18" fill="#ebebeb" opacity="0.6" style="isolation:isolate"/>
<polygon points="138.13 135.3 377.16 135.3 378.1 117.54 139.06 117.54 138.13 135.3" fill="#ebebeb" opacity="0.6" style="isolation:isolate"/>
<polygon points="138.13 164.4 377.16 164.4 378.1 146.66 139.06 146.66 138.13 164.4" fill="#ebebeb" opacity="0.6" style="isolation:isolate"/>
<polygon points="138.13 193.52 377.16 193.52 378.1 175.76 139.06 175.76 138.13 193.52" fill="#ebebeb" opacity="0.6" style="isolation:isolate"/>
<polygon points="138.13 222.62 377.16 222.62 378.1 204.88 139.06 204.88 138.13 222.62" fill="#ebebeb" opacity="0.6" style="isolation:isolate"/>
<polygon points="138.13 251.72 377.16 251.72 378.1 233.98 139.06 233.98 138.13 251.72" fill="#ebebeb" opacity="0.6" style="isolation:isolate"/>
<rect x="513.12" y="95.67" width="191.05" height="133.44" fill="#f0f0f0"/>
<rect x="503.51" y="95.67" width="198.95" height="133.44" fill="#f5f5f5"/>
<rect x="514.02" y="106.17" width="177.91" height="112.42" fill="#fff"/>
<rect x="609.46" y="133.43" width="53.85" height="57.91" rx="10.36" fill="#f5f5f5"/>
<rect x="542.66" y="133.43" width="53.85" height="57.91" rx="10.36" fill="#f5f5f5"/>
</g>
<g id="a3930ff3-42bb-45cc-9466-0ca166cce475" data-name="freepik--Shadow--inject-2">
<ellipse id="e584a536-4171-485f-b339-7cf76fbccd73" data-name="freepik--path--inject-2" cx="432.88" cy="623.68" rx="312.77" ry="18.26" fill="#f5f5f5"/>
</g>
<polygon points="503.99 593.53 491.49 588.99 498.38 558.87 510.88 563.4 503.99 593.53" fill="#f9b499"/>
<polygon points="602.59 610.13 589.33 610.13 585.55 579.4 598.83 579.4 602.59 610.13" fill="#f9b499"/>
<path d="M587.58,608.6h16.14a1.15,1.15,0,0,1,1.12.9l2.75,11.8a1.91,1.91,0,0,1-1.44,2.3,1.57,1.57,0,0,1-.48,0c-5.21-.08-9-.39-15.57-.39-4,0-16.13.42-21.76.42s-6.36-5.51-4.08-6c10.21-2.23,17.89-5.31,21.13-8.26A3.22,3.22,0,0,1,587.58,608.6Z" fill="#0071f2" data-primary="true"/>
<path d="M491,586.45l14.19,3a1.16,1.16,0,0,1,.92,1.13l.21,12.09a1.9,1.9,0,0,1-1.85,1.95,2,2,0,0,1-.49,0c-5.11-1.18-12.45-3.06-18.89-4.45-7.53-1.62-12.19-3.13-21-5-5.34-1.14-5.71-6.83-3.39-6.85,10.63,0,17.07,2,27-1.47A6.05,6.05,0,0,1,491,586.45Z" fill="#0071f2" data-primary="true"/>
<path d="M575.34,215.17q-6.11,9.29-12.44,18.49l-12.68,18.27c-2.06,3-4.22,6.05-6.19,9a28.12,28.12,0,0,1-5.41,6.06,19,19,0,0,1-8.9,4.2,18.57,18.57,0,0,1-5.05.11,18.93,18.93,0,0,1-4.4-1.11,24.15,24.15,0,0,1-6.65-3.94,33.3,33.3,0,0,1-4.73-4.84c-.69-.84-1.3-1.71-1.9-2.6s-1.1-1.74-1.74-2.85l7.9-6.07,1.94,1.39,2,1.35a25.87,25.87,0,0,0,4,2.13,9.62,9.62,0,0,0,3.41.89c.92,0,1.4-.18,1.61-.43a10.47,10.47,0,0,0,.82-1.07c.42-.63.89-1.45,1.54-2.66,1.9-3.4,3.77-6.66,5.74-9.91q5.84-9.68,11.92-19.13c2-3.14,4.08-6.27,6.19-9.37s4.17-6.21,6.36-9.26Z" fill="#f9b499"/>
<path d="M582.07,207.1c2.14,12.54-26.69,42.35-26.69,42.35l-23.31-19.36a159.15,159.15,0,0,1,21-27.42C564.84,190.79,579.68,193.41,582.07,207.1Z" fill="#0071f2" data-primary="true"/>
<path d="M582.07,207.1c2.14,12.54-26.69,42.35-26.69,42.35l-23.31-19.36a159.15,159.15,0,0,1,21-27.42C564.84,190.79,579.68,193.41,582.07,207.1Z" opacity="0.1" style="isolation:isolate"/>
<path d="M563.79,221.7c-6.78,2.13-14.95,12.15-17,20.62l8.65,7.19a202.37,202.37,0,0,0,19-23C572.81,223.06,571.61,219.25,563.79,221.7Z" opacity="0.2" style="isolation:isolate"/>
<path d="M641.38,209.23a295.52,295.52,0,0,0-13.6,42.23c-2.48,10-4.4,19.7-5.93,28.48-3.6,20.56-5.05,36.41-6.31,41.68l-69.62-14.1c-.5-76.22,22.47-112.4,22.47-112.4a138.57,138.57,0,0,1,17.05.11c1.19.08,2.42.19,3.64.34a261.76,261.76,0,0,1,29.61,6c1.85.47,3.71,1,5.53,1.54C633.38,205.86,641.38,209.23,641.38,209.23Z" fill="#407bff"/>
<path d="M641.38,209.23a295.52,295.52,0,0,0-13.6,42.23c-2.48,10-4.4,19.7-5.93,28.48-3.6,20.56-5.05,36.41-6.31,41.68l-69.62-14.1c-.5-76.22,22.47-112.4,22.47-112.4a138.57,138.57,0,0,1,17.05.11c1.19.08,2.42.19,3.64.34a261.76,261.76,0,0,1,29.61,6c1.85.47,3.71,1,5.53,1.54C633.38,205.86,641.38,209.23,641.38,209.23Z" fill="#e7e7e7"/>
<path d="M590.54,209.86c-2.73,4.84-6.46,8.62-11.18,21.78.29,3,.74,6,1.3,9.08q3.23-3.69,6.78-7.32c3.4-12.91,2.77-16.59,5.85-22.88Z" fill="#0071f2" data-primary="true"/>
<polygon points="589.87 214.1 588.75 207.07 593.86 205.96 596.96 208.83 589.87 214.1" fill="#0071f2" data-primary="true"/>
<path d="M624.17,203.09c-17.28,11.88-32,24.39-43.56,37.63-3-16.23-2.3-31.5,3.1-45.59a136.76,136.76,0,0,0-15.42,0s-22.92,36.22-22.42,112.41l69.67,14.1c1.26-5.28,2.71-21.12,6.31-41.69,1.53-8.77,3.45-18.42,5.93-28.47a294.71,294.71,0,0,1,13.6-42.23S633.38,205.86,624.17,203.09Z" fill="#0071f2" data-primary="true"/>
<path d="M622.1,167.63c-3.69,9.15-8.92,26.21-3.46,33.88A30,30,0,0,1,594.07,206c-8.16-1.84-7.47-7.66-5-10.45,11.11-.39,12.35-8.32,11.92-16.13Z" fill="#f9b499"/>
<path d="M593.86,206s2.29,4.58,5.13,9.25c6-1.73,20.16-6.71,21.16-13.89a7.25,7.25,0,0,0-2.72-4A78.52,78.52,0,0,1,593.86,206Z" fill="#fff"/>
<path d="M593.86,206a38.21,38.21,0,0,0-8.63,6.31c-3.31-3.52,1.61-16.21,3.43-17.36a9.25,9.25,0,0,1,5.63-.64S588,203.13,593.86,206Z" fill="#fff"/>
<path d="M613.56,172.45l-12.52,7a31.9,31.9,0,0,1-.1,5.44c4.16.24,10.6-3.08,11.84-7.24A14.79,14.79,0,0,0,613.56,172.45Z" opacity="0.2" style="isolation:isolate"/>
<path d="M598,134.51c-3.62,4-7.25,13.84.66,13.76S604.17,127.7,598,134.51Z" fill="#2f2e41" data-secondary="true"/>
<path d="M628.4,156.3c-4.84,12.25-7,19.65-15.44,23.94-12.62,6.46-26.13-4.45-25-17.92,1-12.13,8.73-30.1,22.59-30.95A18.14,18.14,0,0,1,628.4,156.3Z" fill="#f9b499"/>
<path d="M601.3,139.35c-8.22-4.1-10.78-15.55,2.82-18.5a27.73,27.73,0,0,1,9.53,0s-3.55,2.19-2.32,5.48a13.28,13.28,0,0,1,15.7-2c-2.55,2-3.12,8.25,1.61,8.38,7.13.19,15.42,5.37,11.29,12.55,6,7.53-3.37,18-16.68,19.06-3.63-7.3,2.23-18.11,2.23-18.11C618.77,146,608.72,143,601.3,139.35Z" fill="#2f2e41" data-secondary="true"/>
<path d="M637.91,145.42s6.09-.84,4-6.57C646.46,142.66,643.14,146.17,637.91,145.42Z" fill="#2f2e41" data-secondary="true"/>
<path d="M636.66,146.37s5.9-1.73,6.35,4.34C645.59,145.37,641.14,143.53,636.66,146.37Z" fill="#2f2e41" data-secondary="true"/>
<path d="M629.82,168.29a12.3,12.3,0,0,1-8.07,5c-4.34.63-6-3.41-4.34-7.21,1.47-3.44,5.49-7.91,9.68-6.79S632.15,165,629.82,168.29Z" fill="#f9b499"/>
<path d="M491.15,569.82l21.18,7.68s16.53-72.82,25.33-113.18c2.67-12.29,8.06-29.17,14.42-47.17,8.06-22.58,17.61-47,25.36-66.14,8.16-20.08,14.24-34.26,14.24-34.26l-45.76-9.26S511,408,503.13,447.7C495,489,491.15,569.82,491.15,569.82Z" fill="#2f2e41" data-secondary="true"/>
<path d="M552.08,417.15c8.06-22.58,17.61-47,25.36-66.14l-3.55-10.95C560.81,352.29,552.63,394,552.08,417.15Z" opacity="0.2" style="isolation:isolate"/>
<path d="M570.6,312.52s-8.17,114.54-8.67,153.53c-.53,42.63,19.36,126.13,19.36,126.13h24.3s-9.68-75.35-6.46-117.58c3.62-47.24,16.36-153,16.36-153Z" fill="#2f2e41" data-secondary="true"/>
<path d="M513.68,249.92l-9.82-9.33-4.63,14.28s9.26,7.77,13.07,2.85Z" fill="#f9b499"/>
<polygon points="490.78 237.77 490.97 251.4 499.25 254.87 503.88 240.59 490.78 237.77" fill="#7f3e3b"/>
<path d="M536.12,217.7l-100.74-21-8.95,42.8,100.74,21a24.2,24.2,0,0,1-9.87,47.39h0l-100.74-21-8.94,42.78,100.74,21A68.11,68.11,0,0,0,588.71,298l3.44-16.55Z" fill="#d1d3d4"/>
<path d="M536.12,217.7l-100.74-21-8.95,42.8,100.74,21a24.2,24.2,0,0,1-9.87,47.39h0l-100.74-21-8.94,42.78,100.74,21A68.11,68.11,0,0,0,588.71,298l3.44-16.55Z" opacity="0.1" style="isolation:isolate"/>
<path d="M591.75,283.45a68.13,68.13,0,0,1-80.36,52.71l-100.74-21,8.92-42.81,100.74,21a24.2,24.2,0,1,0,10.28-47.29l-.42-.09L429.43,225l8.9-42.81,100.76,21a68.18,68.18,0,0,1,52.66,80.35Z" fill="#d1d3d4"/>
<rect x="422.22" y="195.24" width="58.62" height="39.17" transform="translate(149.19 613.09) rotate(-78.24)" fill="#fff" opacity="0.5" style="isolation:isolate"/>
<rect x="403.44" y="285.45" width="58.62" height="39.17" transform="translate(45.92 666.53) rotate(-78.24)" fill="#fff" opacity="0.5" style="isolation:isolate"/>
<path d="M647.63,220.9c1.35,4.83,2.38,9.32,3.43,14s1.86,9.41,2.61,14.18,1.31,9.68,1.62,14.63a76.93,76.93,0,0,1-.45,15.91,36.78,36.78,0,0,1-1,4.63,25.13,25.13,0,0,1-.92,2.56,11.59,11.59,0,0,1-.63,1.39l-.37.73-.52.85a16.62,16.62,0,0,1-5.16,5.13,21,21,0,0,1-5.29,2.37,33.77,33.77,0,0,1-9,1.29,60.28,60.28,0,0,1-7.94-.43,111.72,111.72,0,0,1-28.36-7.71l2.7-9.6,6.68.74c2.26.24,4.5.41,6.72.58a129,129,0,0,0,13,.39,47.78,47.78,0,0,0,6-.52,16.78,16.78,0,0,0,4.61-1.21,3.06,3.06,0,0,0,1-.64c.08-.13-.11,0-.34.19v.1h0v-.21a5.24,5.24,0,0,1,.16-.73,20.58,20.58,0,0,0,.3-2.21,68.62,68.62,0,0,0-.47-11.9c-.52-4.24-1.16-8.6-2-12.91-1.61-8.71-3.59-17.74-5.69-26.23Z" fill="#f9b499"/>
<path d="M645,211.17c10.41,7.31,13.84,45.17,13.84,45.17l-32.26,3.92A187,187,0,0,1,622.25,227C621.81,209.05,632.35,202.26,645,211.17Z" fill="#0071f2" data-primary="true"/>
<path d="M645,211.17c10.41,7.31,13.84,45.17,13.84,45.17l-32.26,3.92A187,187,0,0,1,622.25,227C621.81,209.05,632.35,202.26,645,211.17Z" opacity="0.1" style="isolation:isolate"/>
<path d="M601.55,281.31l-9.47-9.68-6,16.13s9.86,6.32,13.78,1.42Z" fill="#f9b499"/>
<polygon points="581.15 270.29 576.89 283.73 586.2 287.68 592.08 271.69 581.15 270.29" fill="#f9b499"/>
<path d="M396.91,118.57v62a6.89,6.89,0,0,1-6.89,6.88H284a6.88,6.88,0,0,1-6.88-6.88v-62a6.42,6.42,0,0,1,.5-2.56,6.93,6.93,0,0,1,6.45-4.33h106a6.53,6.53,0,0,1,6.83,6.89Z" fill="#d1d3d4"/>
<path d="M396.41,116l-56.57,47a4.45,4.45,0,0,1-5.65,0l-56.57-47a6.93,6.93,0,0,1,6.45-4.33h106A6.92,6.92,0,0,1,396.41,116Z" opacity="0.3" style="isolation:isolate"/>
<path d="M355.45,78.61H299.09v55.21L334.19,163a4.45,4.45,0,0,0,5.65,0L375,133.82V91Z" fill="#fff"/>
<path d="M337,165a5.39,5.39,0,0,1-3.45-1.26l-35.1-29.2a1,1,0,0,1-.36-.76V78.61a1,1,0,0,1,1-1h56.36a1,1,0,0,1,.52.15l19.58,12.3a1,1,0,0,1,.45.84v42.9a1,1,0,0,1-.35.76l-35.19,29.13A5.35,5.35,0,0,1,337,165Zm-37-31.62,34.77,28.86a3.45,3.45,0,0,0,4.39,0L374,133.35V91.41L355.08,79.66h-55Z" fill="#d1d3d4"/>
<polygon points="374.95 90.92 355.37 78.6 361.71 94.92 374.95 90.92" fill="#ebebeb"/>
<path d="M361.71,95.91a1,1,0,0,1-.92-.63L354.45,79a1,1,0,0,1,1.44-1.17l19.58,12.3a1,1,0,0,1,.45,1,1,1,0,0,1-.69.81L362,95.8A.81.81,0,0,1,361.71,95.91ZM357.35,81l4.94,12.69L372.6,90.6Z" fill="#d1d3d4"/>
<path d="M352.37,130.88h4.45a17,17,0,0,1-6.93,6.66,25.75,25.75,0,0,1-12.33,2.76A26.64,26.64,0,0,1,325.82,138a14,14,0,0,1-7-6.89,19.77,19.77,0,0,1-1.61-9.9,24.09,24.09,0,0,1,3.63-11,20.47,20.47,0,0,1,8.21-7.61A24.56,24.56,0,0,1,340.38,100a19.73,19.73,0,0,1,9.21,2,13,13,0,0,1,5.83,5.84,15.53,15.53,0,0,1,1.61,8.26,16.65,16.65,0,0,1-4,9.67,13.89,13.89,0,0,1-11,5.46,4.37,4.37,0,0,1-2.57-.62,2.64,2.64,0,0,1-1-1.77,8.67,8.67,0,0,1-5.89,2.39,7.07,7.07,0,0,1-5.58-2.41,8.26,8.26,0,0,1-1.79-6.45,16.62,16.62,0,0,1,3.45-9,11,11,0,0,1,9-4.94,5.56,5.56,0,0,1,5.29,2.84l.7-2.32h5.53l-4.32,15a10.71,10.71,0,0,0-.44,1.84,1.05,1.05,0,0,0,.18.79.71.71,0,0,0,.56.26,5.1,5.1,0,0,0,2.68-1.21,12.84,12.84,0,0,0,3.79-4.27,13.17,13.17,0,0,0,1.74-5.55,10.48,10.48,0,0,0-3-8.62q-3.63-3.45-10.32-3.45a19.75,19.75,0,0,0-9.79,2.31,16.46,16.46,0,0,0-6.45,6.45,21.07,21.07,0,0,0-2.68,8.74,14.22,14.22,0,0,0,1.61,8.07,11.59,11.59,0,0,0,5.84,5.29,23,23,0,0,0,9.1,1.61,25.07,25.07,0,0,0,8.71-1.38A15,15,0,0,0,352.37,130.88Zm-22-8.6a5.65,5.65,0,0,0,.77,3.91,3.16,3.16,0,0,0,2.58,1.26,4.9,4.9,0,0,0,2.28-.59,6.38,6.38,0,0,0,1.61-1.32,12.08,12.08,0,0,0,2.2-3.72,14.78,14.78,0,0,0,1.16-4.57,5.06,5.06,0,0,0-.81-3.63,3.22,3.22,0,0,0-2.68-1.27,5.1,5.1,0,0,0-3.43,1.4,9.25,9.25,0,0,0-2.62,4A16.63,16.63,0,0,0,330.4,122.28Z" fill="#d1d3d4"/>
<path d="M317.49,268.6v55.5a6.17,6.17,0,0,1-6.16,6.18H216.41a6.2,6.2,0,0,1-6.18-6.18V268.6a6,6,0,0,1,.46-2.29,6.18,6.18,0,0,1,5.72-3.88h94.92a6.18,6.18,0,0,1,5.71,3.86A5.7,5.7,0,0,1,317.49,268.6Z" fill="#d1d3d4"/>
<path d="M317,266.29l-50.65,42a4,4,0,0,1-5.05,0l-50.65-42a6.18,6.18,0,0,1,5.72-3.88h94.92A6.18,6.18,0,0,1,317,266.29Z" opacity="0.3" style="isolation:isolate"/>
<path d="M280.31,232.82H229.9v49.42l31.44,26.1a3.92,3.92,0,0,0,5.05,0l31.44-26.1V243.83Z" fill="#fff"/>
<path d="M263.87,310.13a4.83,4.83,0,0,1-3.1-1.11l-31.44-26.1a.92.92,0,0,1-.3-.68V232.82a.88.88,0,0,1,.87-.89h50.41a.86.86,0,0,1,.47.14l17.52,11a.9.9,0,0,1,.42.74v38.41a.93.93,0,0,1-.33.68L267,309A4.79,4.79,0,0,1,263.87,310.13Zm-33.08-28.29,31.11,25.81a3.08,3.08,0,0,0,3.94,0L297,281.84V244.32l-16.91-10.63H230.79Z" fill="#d1d3d4"/>
<polygon points="297.83 243.83 280.31 232.82 285.97 247.41 297.83 243.83" fill="#ebebeb"/>
<path d="M286,248.3a.86.86,0,0,1-.8-.56l-5.68-14.62a.84.84,0,0,1,.26-1,.85.85,0,0,1,1,0l17.52,11a.88.88,0,0,1,.4.87.89.89,0,0,1-.61.71l-11.86,3.58A.76.76,0,0,1,286,248.3ZM282.08,235l4.42,11.39,9.26-2.79Z" fill="#d1d3d4"/>
<path d="M277.62,279.69h4a15,15,0,0,1-6.21,6,23.09,23.09,0,0,1-11,2.47,24.22,24.22,0,0,1-10.52-2.08,12.54,12.54,0,0,1-6.21-6.18,17.56,17.56,0,0,1-1.52-8.87,21.22,21.22,0,0,1,3.23-9.81,18.16,18.16,0,0,1,7.35-6.82,21.73,21.73,0,0,1,10.07-2.29,17.79,17.79,0,0,1,8.26,1.84,11.55,11.55,0,0,1,5.21,5.22,14,14,0,0,1,1.37,7.39,14.9,14.9,0,0,1-3.61,8.65,12.37,12.37,0,0,1-9.84,4.84,4,4,0,0,1-2.31-.54,2.36,2.36,0,0,1-.92-1.61,7.68,7.68,0,0,1-5.27,2.13,6.36,6.36,0,0,1-5-2.14,7.46,7.46,0,0,1-1.61-5.71,15.19,15.19,0,0,1,3.1-8.07,9.83,9.83,0,0,1,8.06-4.42,5,5,0,0,1,4.75,2.55l.63-2.08h4.93l-3.87,13.43c-.23.87-.35,1.4-.39,1.62a1.1,1.1,0,0,0,.16.71.69.69,0,0,0,.51.22,4.54,4.54,0,0,0,2.4-1.08,11.75,11.75,0,0,0,3.4-3.82,12,12,0,0,0,1.62-5,9.4,9.4,0,0,0-2.75-7.71,12.24,12.24,0,0,0-9.08-3.11,17.5,17.5,0,0,0-8.77,2.08,14.64,14.64,0,0,0-5.78,5.82,19.06,19.06,0,0,0-2.39,7.83,12.74,12.74,0,0,0,1.44,7.21,10.36,10.36,0,0,0,5.24,4.72,20.46,20.46,0,0,0,8.07,1.49,21.81,21.81,0,0,0,7.8-1.25A13.1,13.1,0,0,0,277.62,279.69ZM257.94,272a5,5,0,0,0,.71,3.5,2.74,2.74,0,0,0,2.29,1.13,4.17,4.17,0,0,0,2-.53,5.23,5.23,0,0,0,1.5-1.18,10.17,10.17,0,0,0,2-3.34,13.71,13.71,0,0,0,1.05-4.08,4.62,4.62,0,0,0-.74-3.23,2.9,2.9,0,0,0-2.39-1.13,4.71,4.71,0,0,0-3.08,1.25,8.46,8.46,0,0,0-2.34,3.54,15.29,15.29,0,0,0-1,4Z" fill="#d1d3d4"/>
<path d="M233.85,157.69v48.06a5.36,5.36,0,0,1-5.34,5.34H146.34a5.36,5.36,0,0,1-5.36-5.34V157.69a5.19,5.19,0,0,1,.4-2,5.35,5.35,0,0,1,5-3.36h82.17a5.37,5.37,0,0,1,5,3.34A5.13,5.13,0,0,1,233.85,157.69Z" fill="#d1d3d4"/>
<path d="M233.46,155.69,189.6,192.1a3.43,3.43,0,0,1-4.37,0l-43.85-36.39a5.35,5.35,0,0,1,5-3.36h82.17A5.37,5.37,0,0,1,233.46,155.69Z" opacity="0.3" style="isolation:isolate"/>
<path d="M201.65,126.7H158.1v42.82l27.21,22.58a3.38,3.38,0,0,0,4.37,0l27.23-22.58V136.25Z" fill="#fff"/>
<path d="M187.42,193.65a4.16,4.16,0,0,1-2.67-1L157.53,170.1a.78.78,0,0,1-.27-.58V126.7a.76.76,0,0,1,.76-.76h43.63a.83.83,0,0,1,.41.13l15.18,9.54a.8.8,0,0,1,.35.64v33.27a.78.78,0,0,1-.27.58L190.1,192.68A4.16,4.16,0,0,1,187.42,193.65Zm-28.65-24.5,26.94,22.37a2.67,2.67,0,0,0,3.41,0l26.94-22.37V136.67l-14.63-9.19H158.77Z" fill="#d1d3d4"/>
<polygon points="216.83 136.25 201.65 126.7 206.56 139.35 216.83 136.25" fill="#ebebeb"/>
<path d="M206.56,140.12a.73.73,0,0,1-.7-.5L201,127a.75.75,0,0,1,.46-1,.77.77,0,0,1,.66.06l15.18,9.54a.75.75,0,0,1,.33.76.71.71,0,0,1-.53.61l-10.26,3.11Zm-3.38-11.55,3.84,9.86,8.07-2.42Z" fill="#d1d3d4"/>
<path d="M199.33,167.23h3.45a13.13,13.13,0,0,1-5.39,5.16,19.86,19.86,0,0,1-9.55,2.14,20.59,20.59,0,0,1-9.09-1.8,10.86,10.86,0,0,1-5.39-5.34,15.37,15.37,0,0,1-1.31-7.68,18.53,18.53,0,0,1,2.82-8.5,15.81,15.81,0,0,1,6.36-5.91,19.12,19.12,0,0,1,8.73-2,15.24,15.24,0,0,1,7.14,1.61,10.09,10.09,0,0,1,4.52,4.52,12.07,12.07,0,0,1,1.18,6.45,12.92,12.92,0,0,1-3.13,7.49,10.72,10.72,0,0,1-8.52,4.22,3.35,3.35,0,0,1-2-.48,2,2,0,0,1-.79-1.37,6.74,6.74,0,0,1-4.57,1.85,5.47,5.47,0,0,1-4.32-1.87,6.42,6.42,0,0,1-1.4-4.93,13.1,13.1,0,0,1,2.69-7A8.53,8.53,0,0,1,187.7,150a4.29,4.29,0,0,1,4.1,2.21l.54-1.8h4.3l-3.36,11.51a10.11,10.11,0,0,0-.34,1.42.85.85,0,0,0,.15.62.53.53,0,0,0,.43.19,3.93,3.93,0,0,0,2.08-.94,10.69,10.69,0,0,0,4.29-7.61,8.13,8.13,0,0,0-2.37-6.58,10.65,10.65,0,0,0-7.87-2.68,15.27,15.27,0,0,0-7.58,1.79,12.53,12.53,0,0,0-5,5.05A16.07,16.07,0,0,0,175,160a11.1,11.1,0,0,0,1.24,6.22,9,9,0,0,0,4.55,4.1,17.89,17.89,0,0,0,7.05,1.29,18.86,18.86,0,0,0,6.74-1.08A11.38,11.38,0,0,0,199.33,167.23Zm-17-6.67a4.4,4.4,0,0,0,.55,3,2.49,2.49,0,0,0,2,1,3.72,3.72,0,0,0,1.78-.46,4.85,4.85,0,0,0,1.29-1,9.29,9.29,0,0,0,1.71-2.89,12.44,12.44,0,0,0,.9-3.55,4.05,4.05,0,0,0-.64-2.81,2.49,2.49,0,0,0-2.07-1,4.11,4.11,0,0,0-2.68,1.08,7.41,7.41,0,0,0-2,3.19A13.11,13.11,0,0,0,182.29,160.56Z" fill="#d1d3d4"/>
</svg>